<?xml version="1.0" standalone="no"?>
<!DOCTYPE svg PUBLIC "-//W3C//DTD SVG 1.1//EN" "http://www.w3.org/Graphics/SVG/1.1/DTD/svg11.dtd" >
<svg xmlns="http://www.w3.org/2000/svg">
<metadata></metadata>
<defs>
<font id="chantelli_antiquaregular" horiz-adv-x="634" >
<font-face units-per-em="2048" ascent="1638" descent="-410" />
<missing-glyph horiz-adv-x="624" />
<glyph horiz-adv-x="2048" />
<glyph horiz-adv-x="2048" />
<glyph unicode="&#xd;" horiz-adv-x="682" />
<glyph unicode=" "  horiz-adv-x="624" />
<glyph unicode="&#x09;" horiz-adv-x="624" />
<glyph unicode="&#xa0;" horiz-adv-x="624" />
<glyph unicode="!" horiz-adv-x="524" d="M143 66q16 63 88 77.5t111 -8.5q35 -20 27 -76q-8 -53 -76 -75q-66 -23 -115 0t-35 82zM172 1755h176l-49 -1186h-86z" />
<glyph unicode="&#x22;" horiz-adv-x="772" d="M92 1755h176l-49 -518h-86zM492 1755h174l-50 -518h-84z" />
<glyph unicode="#" horiz-adv-x="1783" d="M137 483l25 99h469l102 440h-467l23 96h469l129 543h117l-130 -543h441l131 547h117l-131 -547h469l-23 -96h-469l-104 -440h469l-25 -99h-469l-115 -487h-116l114 487h-438l-117 -487h-116l114 487h-469zM748 582h440l102 440h-438z" />
<glyph unicode="$" horiz-adv-x="1179" d="M104.5 1321q59.5 272 395.5 336v115l127 81v-196q199 0 327 -62l-147 -215l-80 29l90 61q-61 86 -190 111v-645q381 -207 422 -424q39 -215 -101 -360q-141 -147 -321 -162v-148l-127 -96v246q-229 4 -394 129l72 145q186 -170 322 -174v711q-455 246 -395.5 518z M258 1358q-20 -199 242 -359v584q-222 -28 -242 -225zM627 76q221 -6 252 241q31 246 -252 420v-661z" />
<glyph unicode="%" horiz-adv-x="1787" d="M139 1085q-22 154 24.5 283t129.5 184q80 53 199 60q111 6 198 -64q86 -68 109 -217q20 -145 -23 -282q-43 -133 -135 -190.5t-201 -57.5q-111 0 -194 65q-87 67 -107 219zM272 1286q-18 -152 27 -270q45 -117 139 -139q90 -20 150 41q55 59 74 204q18 150 -27 283 q-47 137 -135 149q-90 12 -150 -53t-78 -215zM283 -6l1183 1677h117l-1180 -1677h-120zM1081 342q-20 152 25 281q46 129 129 184q80 53 199 59q111 6 198 -63q86 -68 109 -217q20 -145 -23 -283q-43 -133 -135 -190.5t-201 -57.5q-111 0 -194 66q-84 67 -107 221z M1214.5 540.5q-18.5 -151.5 26.5 -270.5q45 -117 139 -139q90 -20 150 41q55 59 74 205q18 150 -27 282q-47 137 -135 150q-92 12 -150 -51q-59 -66 -77.5 -217.5z" />
<glyph unicode="&#x26;" horiz-adv-x="1742" d="M76 360q-41 319 364 560q-129 276 -98 464q31 187 264 271t350 -45q115 -127 43.5 -323.5t-391.5 -366.5q139 -272 447 -592q139 137 120.5 370.5t-157.5 239.5l-19 66q350 -49 654 43l22 -23l-106 -129q-190 47 -316 29q100 -51 90 -238q-8 -184 -217 -426 q291 -291 553 -27l68 -49q-395 -328 -725 -43q-330 -238 -619 -170q-286 67 -327 389zM221 438q23 -254 238 -344q217 -90 479 113q-293 301 -463 643q-277 -156 -254 -412zM492 1468q-49 -162 83 -481q297 137 304 371q6 231 -166 252t-221 -142z" />
<glyph unicode="'" horiz-adv-x="315" d="M362 1755h177l-50 -518h-86z" />
<glyph unicode="(" horiz-adv-x="757" d="M121 676q-23 739 538 1118l43 -47q-401 -225 -403 -1012q-2 -788 403 -1093l-47 -43q-511 340 -534 1077z" />
<glyph unicode=")" horiz-adv-x="741" d="M47 -358l49 -43q512 340 535 1077q23 739 -539 1118l-43 -47q399 -223 401.5 -1011.5t-403.5 -1093.5z" />
<glyph unicode="*" horiz-adv-x="714" d="M72 1391l34 106l216 -94l-21 235h113l-21 -235l219 88l35 -107l-231 -51l151 -178l-86 -68l-121 201l-127 -201l-88 66l158 180z" />
<glyph unicode="+" horiz-adv-x="1443" d="M-692 723v98h598v598h96v-598h600v-98h-600v-600h-96v600h-598z" />
<glyph unicode="," horiz-adv-x="552" d="M115 115l229 82q104 -264 -160 -492l-24 39q152 117 47 360l-72 -38z" />
<glyph unicode="-" horiz-adv-x="786" d="M119 530v154h555v-154h-555z" />
<glyph unicode="." horiz-adv-x="524" d="M143 66q16 63 88 77.5t111 -8.5q35 -20 27 -76q-8 -53 -76 -75q-66 -23 -115 0t-35 82z" />
<glyph unicode="/" horiz-adv-x="858" d="M45 -100l657 1898h107l-653 -1898h-111z" />
<glyph unicode="0" horiz-adv-x="1691" d="M123 1063q71 304 301 479q229 174 537 131q305 -43 473 -278q170 -238 157.5 -551.5t-151.5 -530.5q-139 -215 -404 -299q-266 -84 -520 39t-358 414q-105 293 -35 596zM291 1055q-49 -301 45 -545q96 -246 272 -358q176 -111 389 -60q215 51 315.5 262t92.5 500 q-9 289 -154 498q-143 209 -364 245q-213 37 -381 -104q-166 -137 -215 -438z" />
<glyph unicode="1" horiz-adv-x="716" d="M78 1384q215 90 391 279l35 -27l-39 -67q-66 -535 -29 -1544l-203 -60l-26 21q104 170 86 1460l-209 -158z" />
<glyph unicode="2" horiz-adv-x="1232" d="M80 14q329 359 534 627q203 264 226 465q20 199 -78 309.5t-264 106.5q-164 -2 -373 -138l-29 29q195 156 285 301l70 -8l-136 -166q215 102 390 66q170 -37 260 -168q88 -129 45 -328q-45 -205 -232 -436q-170 -211 -409 -584q621 -12 751 150l41 -13l-260 -317l-100 10 l114 80q-571 37 -821 -14z" />
<glyph unicode="3" horiz-adv-x="1196" d="M47 96l123 109q172 -190 362 -168q190 20 289 213q98 188 51 416q-45 223 -229 284q-182 61 -373 15l6 59q260 20 364.5 129t64.5 231q-43 127 -189 146q-143 18 -336 -90l-33 35q135 55 238 223l100 12l-116 -131q266 66 389 8.5t121 -211.5q-3 -154 -240 -307 q180 -20 297 -131q113 -106 125 -311q12 -201 -62 -338q-74 -139 -198 -221q-121 -80 -355 -86q-225 -7 -399 114z" />
<glyph unicode="4" horiz-adv-x="1202" d="M92 618q694 838 662 1018l166 31q-84 -264 -70 -967q152 2 321 33l-92 -147q-76 41 -225 41q-12 -322 -2 -594l-211 -66l-18 27q94 33 94 629q-410 12 -617 -45zM305 702h412q4 520 6 574q-316 -392 -418 -574z" />
<glyph unicode="5" horiz-adv-x="1148" d="M141 51l66 119q209 -154 379 -98.5t241 256.5q72 205 13 448q-61 249 -234 326q-174 78 -432 -8l-12 24q98 244 28 524q504 -35 777 21l-47 -150q-358 86 -551 41l-23 -348q373 53 555 -139q180 -190 131 -524q-49 -336 -317 -480q-271 -143 -574 -12z" />
<glyph unicode="6" horiz-adv-x="1329" d="M141 590q-18 272 58 500q78 233 245 383q162 143 455 210l64 -141q-211 37 -353 -35q-145 -74 -212.5 -227.5t-92.5 -402.5q166 205 381 196q219 -10 354 -153q135 -145 135.5 -373t-149 -389.5t-379.5 -157.5q-225 2 -358 164q-130 156 -148 426zM326 735 q-31 -133 4 -286q33 -145 135 -261q100 -113 231 -118q133 -6 213 106q84 119 86 291q4 180 -65 321q-74 150 -197 189q-127 41 -251.5 -33t-155.5 -209z" />
<glyph unicode="7" horiz-adv-x="1093" d="M43 1475l37 163q690 -57 954 21l33 -23q-434 -420 -672 -1636l-196 -43l-9 16q367 1137 619 1563q-559 29 -766 -61z" />
<glyph unicode="8" horiz-adv-x="1245" d="M98 522q37 219 340 422q-213 147 -207 334q6 188 121 285q117 98 262 98q143 0 260 -86q119 -88 107 -262t-233 -365q352 -162 389 -397q37 -240 -111 -406q-150 -168 -403.5 -168t-407.5 164q-154 163 -117 381zM258 500q0 -137 96 -271q98 -135 250 -163 q154 -29 262 47q106 74 123 233q16 158 -104 311q-119 154 -355 240q-125 -45 -198.5 -153.5t-73.5 -243.5zM383 1419q-27 -131 51 -254q78 -121 250 -184q164 141 164 301t-109 252q-104 90 -219 55q-108 -33 -137 -170z" />
<glyph unicode="9" horiz-adv-x="1267" d="M100 1126q0 227 149.5 389t379.5 158q227 -2 358 -162q131 -158 150 -428q18 -266 -60 -499q-77 -230 -246 -381q-166 -147 -452 -213l-64 141q207 -37 353 37q143 74 210.5 227.5t92.5 401.5q-166 -205 -381 -197q-217 8 -352 154q-138 147 -138 372zM272 1198 q-4 -180 70 -319q72 -139 203 -181q127 -41 252 33t155 207q29 129 -6 287q-33 150 -133 262q-98 111 -231 117t-220 -111q-88 -119 -90 -295z" />
<glyph unicode=":" horiz-adv-x="518" d="M143 207q16 63 88 77.5t111 -8.5q35 -20 27 -75q-8 -53 -76 -76q-66 -23 -115 0t-35 82zM143 999q14 61 88 76q72 14 111 -8q35 -20 27 -76q-8 -53 -76 -76q-66 -23 -115 0q-51 23 -35 84z" />
<glyph unicode=";" horiz-adv-x="552" d="M115 115l229 82q104 -264 -160 -492l-24 39q152 117 47 360l-72 -38zM158 999q14 61 88 76q72 14 110 -8q35 -20 27 -76q-8 -53 -76 -76q-66 -23 -114 0q-51 23 -35 84z" />
<glyph unicode="&#x3c;" horiz-adv-x="1073" d="M74 750v47l911 510v-119l-747 -416l747 -407v-123z" />
<glyph unicode="=" horiz-adv-x="1187" d="M82 498v108h1020v-108h-1020zM82 909v111h1020v-111h-1020z" />
<glyph unicode="&#x3e;" horiz-adv-x="1062" d="M92 242l914 508v47l-914 510v-119l748 -416l-748 -407v-123z" />
<glyph unicode="?" horiz-adv-x="997" d="M57 1614q125 45 275 239l71 -28l-110 -123q322 92 506 -16q182 -106 110 -345q-70 -236 -483 -395q47 -102 23 -348l-175 -45q23 190 3.5 284.5t-78.5 92.5l4 43q311 29 444 180q135 154 80 315.5t-239.5 192.5t-389.5 -94zM233 66q16 63 88 77.5t111 -8.5q35 -20 27 -76 q-8 -53 -74 -75.5t-115 0.5q-51 23 -37 82z" />
<glyph unicode="@" horiz-adv-x="1972" d="M113 367q-66 385 98 698q162 313 657 412q492 98 760 -148q266 -244 213 -686q-51 -436 -321 -534q-276 -100 -346 -162l-23 213q-238 -180 -365 -170q-125 8 -168 243q-43 231 74 398q113 162 475 -10q49 301 -14 426q-66 127 -483 -84l-37 45q217 70 328 258l79 -29 l-139 -113q319 92 369 62q47 -29 59 -201q12 -168 -6 -438q-18 -274 2 -471q317 106 367 520q49 410 -184.5 631t-555.5 200q-319 -20 -528 -286q-205 -260 -149.5 -678t391 -612.5t712.5 -10.5l13 -61q-561 -201 -887 2q-328 203 -391 586zM784 260q20 -90 56.5 -133 t85.5 -39q94 6 225 145l4 308q-254 166 -334 32q-80 -132 -37 -313z" />
<glyph unicode="A" horiz-adv-x="1961" d="M14 -2q381 535 619 1014q233 471 301 751l59 11q362 -977 867 -1727l110 27l17 -45q-229 -31 -359 -72q-178 471 -405 920q-215 47 -359 47h-6q-119 0 -194 -31q-391 -705 -385 -840l92 -14v-41h-357zM725 993l436 -10q-131 381 -243 520z" />
<glyph unicode="B" horiz-adv-x="1427" d="M76 -4l24 57l144 -16q30 452 30 846q0 445 -38 815l-152 -23l-4 60q194 10 344 10q342 0 450 -53q154 -75 154 -240q0 -174 -215 -301q193 -37 317 -166q126 -129 142 -356q2 -27 2 -54q0 -189 -96 -323q-106 -150 -271 -211q-139 -52 -324 -52q-29 0 -59 1 q-166 7 -335 7q-56 0 -113 -1zM408 1681l4 -1568q162 -67 281 -67q90 0 157 38q160 90 211 256q35 111 35 213q0 56 -11 109q-31 162 -118 260q-88 100 -213 125q-34 7 -65 7h-8q-82 0 -153 -40l-18 63q180 25 272 109q83 75 84 196q0 16 -2 33q-12 145 -129 219 q-86 54 -221 55q-50 -1 -106 -8z" />
<glyph unicode="C" horiz-adv-x="1773" d="M113 825q0 216 98 406q135 262 356 381q215 115 486 143q57 6 120 6q227 0 533 -78l-207 -204l-76 14l123 74q-252 99 -500 99q-21 0 -42 -1q-272 -10 -465 -170q-193 -162 -236 -448q-12 -78 -12 -154q0 -201 84 -381q115 -250 348 -369q159 -82 332 -82h4q80 0 164 17 q262 53 415 211l29 -88q-115 -33 -340 -320l-78 31l160 137q-214 -80 -439 -80q-38 0 -77 2q-262 14 -487.5 194.5t-278.5 491.5q-14 85 -14 168z" />
<glyph unicode="D" horiz-adv-x="1923" d="M25 72l208 -27q56 290 57 721q0 398 -48 909l-181 -30l-12 84q66 -1 135 -1q210 0 561 7h43q304 0 558 -84q279 -92 389 -387q66 -176 66 -348q0 -118 -32 -234q-76 -283 -290 -457q-209 -170 -514 -213q-166 -24 -428 -24h-21q-211 0 -479 14zM434 1640l6 -1517 q217 -49 388 -49q148 0 264 37q249 80 381 270q129 186 139 442q1 22 1 44q0 227 -89 405q-98 197 -281 284q-180 86 -379 103q-61 5 -126 5q-143 -1 -304 -24z" />
<glyph unicode="E" horiz-adv-x="1239" d="M39 1673l24 62q198 -12 383 -12q284 0 531 28l-55 -137q-287 51 -437 51q-42 0 -73 -4v-619q469 0 641 64l-78 -174q-248 49 -396 49q-117 0 -167 -31l-21 -887q528 6 660 156l43 -16l-267 -332l-92 8l113 107q-125 13 -254 13h-19q-199 0 -409 -28l-6 33q80 39 94 598 q3 125 3 248q0 438 -44 840z" />
<glyph unicode="F" horiz-adv-x="1185" d="M43 1673l25 62q195 -12 382 -12q290 0 562 28l-56 -147q-282 54 -443 54h-6q-60 0 -101 -7v-668q45 -1 88 -1h41q320 0 473 42l-78 -164q-252 48 -385 48q-101 0 -139 -27v-838l-246 -82l-6 35q102 39 106 602v112q0 504 -24 980z" />
<glyph unicode="G" horiz-adv-x="1867" d="M102 824q0 71 11 143q51 346 272 534q217 186 547 248q123 23 264 23q232 0 514 -62l-164 -321l-53 81l88 93q-250 117 -505 117q-35 0 -70 -3q-295 -18 -488 -190q-197 -176 -227 -506q-5 -50 -5 -99q0 -272 146 -481q174 -248 457 -327q106 -30 193 -30q149 0 247 87 q154 135 262 539l213 51l21 -35q-184 -63 -424 -1079l-256 -23q166 190 233 453q-161 -62 -375 -62q-96 0 -202 13q-346 41 -543 334q-156 234 -156 502z" />
<glyph unicode="H" horiz-adv-x="2037" d="M147 -49q94 66 111 751q2 95 2 184q0 541 -80 791l226 86v-733l1144 -18l-24 667l203 86l20 -28q-39 -45 -53 -375q-3 -60 -3 -139q0 -352 56 -1100l129 80l18 -72q-152 -37 -321 -197l-41 5q36 151 36 422q0 220 -24 518q-433 72 -758 72q-221 0 -393 -33l11 -885 l-220 -105z" />
<glyph unicode="I" horiz-adv-x="679" d="M166 -14q86 59 90 821v74q0 690 -55 786l215 92q-27 -529 -27 -924q0 -514 45 -798l-250 -86z" />
<glyph unicode="J" horiz-adv-x="671" d="M27 -342q17 -5 32 -5q203 0 203 892v9v26q-2 993 -53 1097l213 92q-17 -688 -17 -1130q0 -354 11 -551q1 -25 1 -51q0 -396 -390 -445v66z" />
<glyph unicode="K" horiz-adv-x="1613" d="M152 -8q80 14 100 665q5 165 5 315q0 430 -44 724l201 65v-764q5 -6 14 -6q104 0 797 766l125 -86q-496 -369 -686 -620q708 -1013 936 -1014q27 0 47 14l16 -47q-78 -9 -146 -9q-230 0 -333 103q-139 139 -680 869l-98 -64v-874l-242 -68z" />
<glyph unicode="L" horiz-adv-x="1144" d="M166 4q82 41 96 598q3 116 3 232q0 438 -46 856l199 67l-21 -1694q528 6 660 156l43 -16l-264 -332l-93 8l111 107q-125 13 -254 13h-19q-199 0 -409 -28z" />
<glyph unicode="M" horiz-adv-x="2433" d="M86 -6q332 1260 332 1649q0 54 -6 92l71 10l695 -1411q624 1161 624 1380v10l64 23q178 -1243 368 -1692l181 43l16 -61q-272 -20 -416 -82l-264 1382l-598 -1335l-51 6q-45 233 -623 1391q-180 -895 -180 -1228q0 -100 16 -146l160 20l-6 -51h-383z" />
<glyph unicode="N" horiz-adv-x="1943" d="M203 1708l55 41l1292 -1348v633q0 539 -92 656l230 71q-44 -732 -44 -1174.5t44 -574.5l-84 -24q-178 354 -1244 1392v-626q0 -598 66 -711l172 20v-57l-379 -14q47 694 47 1114q0 489 -63 602z" />
<glyph unicode="O" horiz-adv-x="2043" d="M104 863q0 127 35 259q86 319 367 506q222 147 506 147q72 0 147 -10q375 -47 580 -295q191 -231 191 -530q0 -26 -1 -49q-16 -334 -184 -561q-166 -223 -492 -314q-130 -36 -260 -36q-190 0 -375 77q-309 129 -438 437q-76 181 -76 369zM304 904q0 -195 79 -367 q119 -260 342 -381q150 -81 321 -82q80 0 166 18q268 55 396 281q117 209 117 489q0 21 -1 41q-10 309 -192 529q-184 221 -457 260q-57 8 -112 8q-204 0 -367 -117q-205 -148 -270 -467q-22 -109 -22 -212z" />
<glyph unicode="P" horiz-adv-x="1249" d="M86 1679v66q118 4 220 4q452 0 603 -76q173 -86 173 -298q0 -14 -1 -29q-12 -236 -215 -363q-199 -125 -401 -131v74q21 -1 41 -1q195 0 297 109q103 111 103 279q0 14 -1 28q-10 186 -137 277q-97 69 -261 69q-46 0 -97 -6v-1648l-224 -84l-12 41q59 27 76 594 q4 143 4 285q0 416 -33 833z" />
<glyph unicode="Q" horiz-adv-x="2045" d="M99 867q0 126 34 255q86 319 369 506q222 147 506 147q72 0 147 -10q371 -45 584 -305q194 -236 194 -590q0 -31 -2 -63q-18 -395 -422 -684q273 -294 462 -295q30 0 59 8l24 -49q-26 -1 -52 -1q-379 0 -632 255q-196 -64 -375 -64q-187 0 -356 70q-334 137 -463 447 q-77 184 -77 373zM298 909q0 -196 81 -372q121 -262 389 -402q153 -79 306 -79l229 44l-213 211l192 39l162 -164q281 199 285 590v12q0 382 -193 623q-193 240 -467 281q-57 8 -112 8q-204 0 -367 -117q-206 -148 -271 -467q-21 -106 -21 -207z" />
<glyph unicode="R" horiz-adv-x="1650" d="M90 1679v66q140 5 259 5q411 0 538 -56q158 -70 158 -261q0 -103 -90 -196t-275 -184q708 -1021 969 -1021q40 0 69 23l25 -55q-76 -8 -145 -8q-267 0 -404 123q-172 154 -717 950q213 27 314 121q81 75 81 183q0 27 -4 52q-20 143 -133 215q-81 52 -217 52 q-49 0 -104 -7v-1658l-201 -66q43 474 43 947q0 400 -31 798z" />
<glyph unicode="S" horiz-adv-x="1175" d="M104 147l95 150q210 -219 398 -219q17 0 34 2q205 20 248 235q7 37 7 72q0 173 -179 318l-412 325q-159 124 -159 300q0 39 7 79q43 227 285 313q105 38 227 38q154 0 332 -60l-133 -209l-84 27l94 63q-142 111 -285 111q-29 0 -59 -4q-174 -27 -225 -181 q-15 -45 -15 -88q0 -106 91 -209q127 -143 385 -307q254 -162 282 -385q4 -32 4 -63q0 -182 -137 -314q-147 -142 -354 -142h-3q-20 0 -40 1q-242 16 -404 147z" />
<glyph unicode="T" horiz-adv-x="1503" d="M63 1602l78 143q325 -24 660 -24q306 0 620 20l-55 -148q-248 64 -435 65q-61 0 -116 -7q-23 -554 -23 -956.5t23 -651.5l-264 -82l-6 35q100 39 117 663q6 233 6 434v57q0 287 -11 499q-69 7 -144 7q-205 0 -450 -54z" />
<glyph unicode="U" horiz-adv-x="1974" d="M119 1702l336 78q-20 -377 -29 -819q-1 -32 -1 -63q0 -422 118 -617q125 -207 403 -207h8q287 4 420 157q135 158 142 598v64v64q0 368 -29 755l217 51q-37 -336 -47 -927q-2 -124 -2 -232q0 -381 24 -530l121 61l33 -43l-334 -131l-4 260q-242 -229 -612 -239 q-14 0 -28 -1q-344 0 -474 228q-118 206 -118 477q0 42 3 86q10 145 10 347q0 240 -14 567l-133 -50z" />
<glyph unicode="V" horiz-adv-x="2060" d="M-23 1700q229 31 359 72q260 -612 696 -1475q659 1239 654 1368l-93 14v41l410 45q-434 -571 -672 -1048q-233 -471 -301 -752l-59 -10q-360 971 -867 1724l-110 -24z" />
<glyph unicode="W" horiz-adv-x="2400" d="M-20 1675q270 20 405 82l231 -1341l621 1284l53 -6q23 -223 590 -1358q229 924 229 1235q0 77 -14 117l-160 -23l9 53h380q-375 -1366 -375 -1686q0 -19 1 -34l-72 -10l-666 1380q-639 -1184 -653 -1362l-63 -20q-129 1213 -320 1671l-180 -43z" />
<glyph unicode="X" horiz-adv-x="1703" d="M-6 1675q266 57 319 92q133 -246 539 -782q479 594 479 773v9l205 -90q-276 -280 -639 -749l653 -897l117 43l21 -62l-353 -55q-184 332 -551 856q-436 -563 -473 -784l152 30l-10 -63l-404 -4l682 880q-428 621 -586 801l-143 -63z" />
<glyph unicode="Y" horiz-adv-x="1619" d="M-16 1692q211 10 352 59l549 -905q454 689 454 846q0 36 -24 45l235 -31q-600 -834 -600 -1026q-9 -136 -9 -273q0 -188 17 -374l-249 -76l-11 31q82 22 83 334q0 140 -17 333q-51 272 -598 1018l-168 -51z" />
<glyph unicode="Z" horiz-adv-x="1517" d="M49 20q930 1403 1041 1614q-213 11 -379 11q-404 0 -541 -66l47 164q375 -32 651.5 -32t454.5 32l25 -23q-891 -1250 -1045 -1640q111 -3 211 -3q681 0 829 148l43 -12l-262 -346l-100 8l127 113q-196 21 -478 21h-26q-253 0 -575 -15z" />
<glyph unicode="[" horiz-adv-x="692" d="M94 -330q115 145 45 2007l33 29q131 -33 483 6l33 -31l-143 -104q-129 57 -246 33v-1856q240 0 313 27l35 -8l-98 -131q-303 57 -424 2z" />
<glyph unicode="\" horiz-adv-x="858" d="M45 1798l653 -1898h111l-657 1898h-107z" />
<glyph unicode="]" horiz-adv-x="733" d="M23 -328l143 107q133 -59 246 -35v1855q-248 0 -316 -24l-33 6l99 131q303 -57 424 -2l30 -27q-117 -150 -47 -2007l-30 -26q-125 31 -484 -8z" />
<glyph unicode="^" horiz-adv-x="1179" d="M23 807l550 919h39l545 -919h-147l-418 731l-440 -731h-129z" />
<glyph unicode="_" horiz-adv-x="1153" d="M31 0h1091v-98h-1091v98z" />
<glyph unicode="`" horiz-adv-x="458" d="M43 1602l342 -142l33 35l-314 254z" />
<glyph unicode="a" horiz-adv-x="1046" d="M113 356q0 156 84 275q54 78 164 78h3q120 0 308 -88q21 127 21 221v9q0 125 -36 196q-24 47 -95 47h-3q-123 0 -385 -131l-37 45q219 72 330 258l78 -29l-137 -113q243 71 327 71q28 0 39 -7q49 -31 62 -201q4 -59 4 -132q0 -123 -13 -306q-8 -118 -8 -226 q0 -132 12 -247l158 61v-57q-238 -68 -309 -131l-25 211q-226 -170 -350 -171q-6 0 -12 1q-125 7 -168 243q-12 64 -12 123zM275 385q0 -59 16 -125q41 -172 132 -172h7q98 6 227 145l5 308q-143 93 -232 93q-70 0 -104 -59q-50 -83 -51 -190z" />
<glyph unicode="b" horiz-adv-x="1171" d="M57 1700l9 63q334 31 387 76l18 -20q-80 -35 -86 -723q150 129 360 129h19q223 -6 274 -353q19 -128 20 -238q0 -189 -57 -325q-90 -215 -262 -274q-131 -44 -402 -45q-76 0 -163 4l-4 31q66 12 66 712q0 803 -3 1006zM381 415q0 -141 4 -315q103 -37 182 -37 q59 0 105 21q106 49 162 209q43 125 43 320q0 47 -3 98q-12 254 -88 358q-62 85 -152 85q-17 0 -34 -3q-109 -18 -172 -160q-47 -106 -47 -576z" />
<glyph unicode="c" horiz-adv-x="942" d="M96 553v33q6 266 133 448.5t353 190.5h17q212 0 245 -219l-150 -84q-12 150 -104 213q-30 21 -62 21q-67 0 -137 -93q-104 -137 -117 -422q-1 -31 -1 -61q0 -239 89 -361q94 -128 206 -128q10 0 20 1q121 12 274 178l49 -84q-205 -190 -411 -190h-2h-6q-211 2 -308 164 q-88 148 -88 393z" />
<glyph unicode="d" horiz-adv-x="1169" d="M126 575q0 143 34 267q57 211 217 295q156 82 432 86l27 526l-193 -43l6 61q246 6 398 76l12 -28q-102 -161 -102 -990q0 -324 16 -751l157 47l11 -51q-219 -35 -330 -125l-12 198q-178 -147 -323 -147q-56 0 -107 22q-183 80 -226 344q-17 104 -17 202v11zM303 585 q0 -64 6 -128q23 -221 123 -314q64 -59 130 -59h2q39 0 79 20q109 55 145 185q24 84 24 384q0 168 -7 402q-93 74 -188 75q-45 0 -91 -17q-139 -53 -188 -254q-35 -142 -35 -294z" />
<glyph unicode="e" horiz-adv-x="997" d="M94 553v33q6 266 133 448q127 184 379 193h10q245 0 248 -439l-590 -73q-2 -47 -2 -91q0 -288 88 -415q95 -138 216 -138q10 0 20 1q133 12 264 198l49 -84q-205 -190 -411 -190h-2h-7q-211 2 -307 164q-88 148 -88 393zM289 770l407 53q2 25 3 50q0 132 -72 227 q-44 58 -96 58q-49 0 -103 -54q-110 -111 -139 -334z" />
<glyph unicode="f" horiz-adv-x="741" d="M43 1130l43 66l176 -2q0 236 6 383t138 209q88 41 207 41q60 0 128 -10l-51 -60q-45 18 -84 19q-57 0 -104 -37q-84 -66 -90 -541l272 -2l-41 -59l-235 14q-14 -744 -14 -1089q0 -227 5 -322l-184 -154l-27 21q68 170 68 1145q0 182 -2 393z" />
<glyph unicode="g" horiz-adv-x="1138" d="M83 625q0 137 48 252q70 166 256 249q158 71 386 72q35 0 71 -2l176 47l20 -39q-129 -53 -139 -176q-10 -147 -24 -350q-3 -44 -3 -91q0 -194 52 -419q17 -75 17 -142q0 -182 -130 -302q-164 -152 -370 -153q-16 0 -31 1q-219 12 -285 127q-14 25 -14 53q0 96 174 230 l20 -25q-41 -51 -41 -103q0 -46 33 -94q72 -104 213 -112q9 -1 18 -1q131 0 209 128q37 61 38 172q0 137 -56 350q-179 -127 -316 -127q-58 0 -108 23q-168 75 -203 296q-11 71 -11 136zM253 684v-14q0 -43 5 -88q18 -174 117 -273q60 -60 122 -60q40 0 81 25 q102 63 131 203q26 128 26 560v32q-109 52 -193 52q-54 0 -98 -21q-119 -57 -161 -199q-30 -101 -30 -217z" />
<glyph unicode="h" horiz-adv-x="1200" d="M84 1720l4 39q256 12 350 72l21 -23q-65 -46 -65 -617q0 -89 1 -190q236 193 398 216q18 3 34 2q135 0 152 -179q9 -100 9 -221t-9 -264q-9 -139 -9 -253q0 -127 11 -226l125 59l6 -47l-301 -123q16 305 23 664v56q0 332 -72 388q-33 25 -75 25q-61 0 -136 -54 q-129 -92 -166 -372l-25 -621l123 66l9 -51l-308 -109q67 740 67 1371q0 214 -7 417z" />
<glyph unicode="i" d="M92 1133q193 4 301 102l31 -4q-51 -148 -51 -628q0 -230 12 -531l123 65l6 -51l-305 -129q22 467 22 748q0 341 -32 403l-103 -35zM193 1608q1 11 4 24q14 61 88 76q31 6 55 6q34 0 55 -12q29 -17 29 -56q0 -10 -2 -22q-8 -53 -74 -76q-31 -11 -58 -11q-1 1 -3 1 q-29 0 -54 10q-40 18 -40 60z" />
<glyph unicode="j" horiz-adv-x="630" d="M-4 -387q221 92 246 737q7 186 7 329q0 349 -42 429l-101 -35l-4 60q190 4 281 102l29 -4q-26 -522 -26 -878q0 -71 1 -136v-13q0 -380 -352 -630zM199 1610l2 14q10 53 75 78q35 13 65 13q27 0 50 -11q42 -21 43 -64q0 -8 -2 -16q-8 -53 -65 -76q-27 -11 -54 -11l-2 1 q-28 0 -59 10q-52 18 -53 62z" />
<glyph unicode="k" horiz-adv-x="1228" d="M59 1706l23 51q231 0 344 76q-46 -454 -46 -877q0 -72 1 -143q9 -2 20 -2q148 0 514 403l166 -94q-180 -39 -481 -284q439 -797 622 -797q31 0 54 22l6 -57q-58 -14 -112 -14q-259 0 -437 311q-209 367 -293 459l-57 -27l10 -676l152 39l16 -45q-190 -29 -352 -114 q36 884 36 1587q0 109 -1 213z" />
<glyph unicode="l" horiz-adv-x="632" d="M61 1706l13 51q242 0 354 76q-51 -610 -51 -1153q0 -324 18 -623l160 60l18 -56q-199 -37 -362 -124q36 884 36 1587q0 109 -1 213z" />
<glyph unicode="m" horiz-adv-x="1761" d="M109 1122q213 12 290 121l29 -2l-12 -240q203 190 356 216q13 2 26 2q135 0 175 -238q193 205 370 238q20 4 39 3q143 0 170 -241q12 -104 12 -265q0 -267 -32 -681l145 57l17 -45l-332 -84q36 263 36 590q0 51 -1 104q-6 373 -90 433q-27 19 -60 19q-65 0 -147 -79 q-123 -117 -131 -358q-20 -275 -20 -467q0 -82 3 -150l123 49l8 -47l-301 -92q12 229 27 664q2 58 2 109q0 284 -59 335q-29 25 -67 25q-54 0 -128 -54q-125 -92 -162 -372l-24 -629l133 43l8 -49l-317 -62q61 635 61 920q0 171 -23 213l-110 -35z" />
<glyph unicode="n" horiz-adv-x="1183" d="M102 1122q203 23 289 119l25 -16l-33 -238q240 205 403 230q18 3 35 2q135 0 152 -179q9 -100 9 -221t-9 -264q-8 -125 -8 -236q0 -137 12 -253l123 69l8 -57l-301 -121q16 319 22 672q0 27 1 53q0 335 -74 391q-33 25 -75 25q-61 0 -136 -54q-129 -92 -166 -372 l-25 -639l123 63l8 -51l-307 -88q61 646 61 935q0 174 -22 216l-100 -35z" />
<glyph unicode="o" horiz-adv-x="1177" d="M103 551q0 152 47 291q66 197 184 278q125 86 280 92q9 0 18 1q151 0 267 -99q123 -104 154 -328q10 -72 10 -140v-12q0 -147 -41 -278q-66 -203 -193 -288q-125 -82 -286 -86q-4 0 -9 -1q-148 0 -270 101q-120 101 -151 332q-9 70 -10 137zM276 568q0 -146 46 -273 q68 -186 210 -217q35 -8 68 -8q96 0 158 69q82 92 116 322q11 71 11 142q0 152 -47 300q-68 211 -205 232q-19 3 -38 3h-9q-105 0 -178 -83q-86 -98 -121 -338q-11 -77 -11 -149z" />
<glyph unicode="p" horiz-adv-x="1189" d="M100 1075l4 49q139 2 248 111l27 -16v-197q233 189 378 189q7 0 13 -1q152 -10 215 -180q55 -147 55 -363q0 -40 -2 -81q-12 -270 -145 -441q-113 -145 -407 -145h-4q-52 0 -109 4q-13 -115 -14 -203q0 -136 32 -215l-186 -16q31 562 31 964q0 345 -23 570zM379 416 q0 -118 4 -264q125 -80 244 -80q121 0 182 188q56 170 56 375q0 20 -1 41q-6 227 -78 354q-48 86 -122 86q-34 0 -74 -18q-123 -57 -174 -209q-37 -110 -37 -473z" />
<glyph unicode="q" horiz-adv-x="1171" d="M99 482q0 241 100 417q115 201 276 260q73 27 154 27q103 0 221 -43l201 88l16 -57q-119 -12 -141 -146q-23 -139 -29 -1335l391 96l6 -86h-22q-263 0 -551 -139l-23 24q56 78 56 466v81q-188 -133 -330 -133q-70 0 -129 33q-181 98 -195 381q-1 23 -1 44v22zM275 568 q0 -62 6 -128q25 -281 188 -321q30 -7 57 -7q124 0 211 142q26 287 26 487q0 70 -3 131q-12 236 -168 236h-8q-162 -6 -246 -195q-63 -143 -63 -345z" />
<glyph unicode="r" horiz-adv-x="786" d="M104 1122q203 23 289 119l25 -16l-17 -164q124 160 278 160q50 0 103 -17l-80 -155q-89 58 -150 58h-2q-61 0 -93 -56q-63 -113 -76 -400l-6 -618l123 63l8 -51l-305 -88q43 579 43 869v13q0 221 -25 269l-100 -35z" />
<glyph unicode="s" horiz-adv-x="882" d="M102 63l68 146q151 -147 283 -154h10q124 0 158 131q6 26 6 51q0 106 -117 203l-283 226q-117 91 -117 230q0 27 5 56q27 180 202 242q79 28 169 28q111 0 239 -42l-92 -189l-60 19l48 55q-104 78 -198 78h-13q-102 -6 -150 -96q-17 -32 -17 -65q0 -62 62 -132 q95 -108 270 -221q176 -115 201 -281q4 -28 4 -53q0 -129 -106 -217q-119 -99 -271 -99q-13 0 -26 1q-166 7 -275 83z" />
<glyph unicode="t" horiz-adv-x="813" d="M63 1114l5 72l225 4q23 206 23 309v8q0 38 -3 64l183 86l-68 -463q201 6 336 59l-16 -86l-322 -26q-53 -538 -53 -766q0 -62 4 -101q18 -182 90 -213q14 -6 30 -6q67 0 175 103l73 -33q-223 -156 -329 -170q-10 -1 -21 -2q-94 0 -149 131q-24 57 -25 232q0 274 60 819z " />
<glyph unicode="u" horiz-adv-x="1220" d="M109 1139q231 20 319 96q-83 -413 -83 -689q0 -72 5 -136q27 -309 133 -322q11 -1 23 -1q99 0 192 93q104 104 123 426l10 520l-139 -45l-8 68h14q218 0 295 94q-31 -375 -31 -731q0 -225 13 -440l143 88l10 -74l-305 -125l-12 248q-200 -187 -362 -215q-25 -4 -48 -4 q-121 0 -174 127q-45 109 -45 324v9q0 71 4 154q18 336 56 512l-121 -49z" />
<glyph unicode="v" horiz-adv-x="1083" d="M-23 1065l3 53q156 14 301 107l16 -31q-13 -12 -13 -47q0 -162 285 -809q265 572 265 781q0 62 -23 91l221 -51q-453 -961 -477 -1177l-47 -5q-301 874 -430 1129z" />
<glyph unicode="w" horiz-adv-x="1540" d="M-18 1104q219 53 311 121l29 -19q20 -487 108 -852q323 607 323 779q0 18 -3 30l45 4q100 -360 362 -856q121 517 121 740q0 134 -43 170l244 -74q-266 -864 -299 -1145h-60l-362 791q-238 -399 -385 -795l-62 4q-82 782 -194 1106l-121 -61z" />
<glyph unicode="x" horiz-adv-x="1093" d="M-8 1133q209 15 301 92q70 -215 262 -541q239 358 239 494q0 20 -6 34l209 -61q-180 -207 -399 -524l377 -574l86 35l14 -49l-260 -74l-321 555q-197 -360 -244 -528h-213q176 211 420 598q-250 416 -359 522l-84 -33z" />
<glyph unicode="y" horiz-adv-x="1099" d="M-14 1137q170 20 270 92l340 -787q263 513 263 693q0 59 -28 82l248 -43q-266 -362 -698 -1539l-305 -65l-8 41q244 51 417 649q0 164 -370 856l-117 -24z" />
<glyph unicode="z" horiz-adv-x="995" d="M49 10q233 170 596 1084q-100 13 -184 13q-215 0 -332 -87l43 180q219 -16 385 -16h19q236 0 346 30l32 -26q-174 -90 -596 -1079q12 0 23 -1q421 0 518 117l43 -14l-229 -307l-64 10l90 84q-112 16 -249 16q-183 0 -412 -28z" />
<glyph unicode="{" horiz-adv-x="700" d="M33 672v43q231 0 247.5 256t0.5 522q-8 131 71.5 205t245.5 90l-6 -43q-184 -31 -162 -272q23 -240 0 -512q-20 -270 -231 -271q215 0 237 -250q22 -249 0 -510q-20 -260 158 -290v-39q-170 16 -250 93t-70 216q20 279 0 520.5t-241 241.5z" />
<glyph unicode="|" horiz-adv-x="399" d="M150 -414v2241h100v-2241h-100z" />
<glyph unicode="}" horiz-adv-x="702" d="M109 1788l4 -43q184 -31 161 -272q-23 -240 0 -512q20 -270 232 -271q-215 0 -238 -250q-22 -249 0 -510q20 -260 -155 -290v-39q170 16 248.5 93t68.5 216q-20 279 0.5 520.5t241.5 241.5v43q-229 0 -245.5 256t-0.5 522q8 131 -71.5 205t-245.5 90z" />
<glyph unicode="~" horiz-adv-x="1298" d="M27 571q6 158 86 242t186 84q49 0 104 -18q127 -35 320 -119q199 -86 278 -86q88 0 148 57q57 53 70 162h53q-2 -150 -88 -238q-82 -86 -199 -86q-53 0 -114.5 18.5t-319.5 123.5q-178 76 -256 75q-80 0 -137.5 -51t-77.5 -164h-53z" />
<glyph unicode="&#xa1;" horiz-adv-x="307" />
<glyph unicode="&#xa2;" />
<glyph unicode="&#xa3;" />
<glyph unicode="&#xa4;" horiz-adv-x="419" />
<glyph unicode="&#xa5;" />
<glyph unicode="&#xa6;" horiz-adv-x="200" />
<glyph unicode="&#xa7;" horiz-adv-x="976" d="M94 770q14 197 219 287q-186 150 -149 346q37 199 215 256q182 59 463 -74l-101 -184l-63 22l53 58q-119 115 -252 127q-137 12 -180 -113q-43 -123 57 -235q96 -109 306 -261q203 -147 233 -284q31 -135 -27 -258q-55 -121 -168 -156q119 -111 131.5 -264.5 t-120.5 -257.5q-132 -104 -301 -92q-166 12 -289 131l69 139q158 -186 310 -193q150 -6 174 142q25 145 -125 272l-309 260q-160 133 -146 332zM229 836q-12 -152 154 -306q168 -156 274 -157q55 -2 82 32.5t29 106.5q2 141 -145.5 295t-266.5 170q-57 8 -89 -27.5 t-38 -113.5z" />
<glyph unicode="&#xa8;" horiz-adv-x="706" d="M39 1632q14 61 88 76q72 14 109 -6q39 -23 28 -78q-8 -53 -76 -76q-66 -23 -114 0q-51 23 -35 84zM442.5 1632.5q14.5 61.5 87.5 75.5q74 15 111 -6q37 -20 27 -78q-8 -53 -74 -75.5t-115 -0.5q-51 23 -36.5 84.5z" />
<glyph unicode="&#xa9;" horiz-adv-x="1198" d="M102 1231q0 129 68 250t186.5 184.5t243.5 63.5q127 0 246 -64q121 -66 188 -184q68 -121 68 -250q0 -125 -68 -250q-65 -120 -184 -184q-121 -66 -250 -66q-127 0 -248 66q-120 65 -184 184q-66 121 -66 250zM174 1231q0 -109 57 -213q55 -102 158 -157.5t211 -55.5 q113 0 213 55q102 55 158 158q57 104 57 213q0 113 -57 213q-59 102 -160 158q-102 55 -211 55q-108 0 -209 -55q-98 -53 -158 -158q-59 -102 -59 -213zM281 1159q-18 111 22 191q45 86 133 133q98 53 182 55q92 4 216 -33l-78 -102l-41 8l41 25q-80 41 -162 47 q-84 6 -145 -43q-59 -49 -76 -148q-15 -98 24 -178t107 -113q70 -35 149 -28q86 6 164 67l17 -39q-35 -16 -105 -112l-51 8l59 45q-86 -23 -180 -16q-95 6 -178 67q-80 60 -98 166z" />
<glyph unicode="&#xaa;" horiz-adv-x="401" />
<glyph unicode="&#xab;" horiz-adv-x="538" />
<glyph unicode="&#xac;" horiz-adv-x="1394" />
<glyph unicode="&#xad;" horiz-adv-x="786" d="M119 530v154h555v-154h-555z" />
<glyph unicode="&#xae;" horiz-adv-x="1198" d="M100 1231q0 129 68 250t186.5 184.5t245.5 63.5t246 -63.5t186.5 -184.5t67.5 -250t-66 -250q-65 -120 -184 -184q-121 -66 -250 -66q-127 0 -248 66q-120 65 -184 184q-68 125 -68 250zM174 1231q0 -109 57 -213q55 -102 158 -157.5t211 -55.5q113 0 213 55 q102 55 158 158q55 100 55 212.5t-57 213.5q-59 104 -158 158q-102 55 -211 55q-108 0 -209 -55q-100 -55 -160 -158q-57 -100 -57 -213zM375 1503v33q272 6 323 -16q53 -25 54 -93q0 -66 -125 -135q279 -395 354 -317l8 -35q-156 -12 -215 41t-244 317q72 8 107 43 q33 33 27 84q-6 45 -46 68q-35 20 -108 10v-555l-92 -20q27 287 4 583z" />
<glyph unicode="&#xb0;" horiz-adv-x="487" d="M45 1436q0 119 84 202q82 82 201 82q121 0 202.5 -82t81.5 -202q0 -115 -84 -199t-200.5 -84t-200.5 84t-84 199zM141 1438q0 -78 55.5 -133.5t133.5 -55.5q76 0 131 55.5t55 133.5t-55 133q-53 53 -131 53q-80 0 -133 -53q-56 -55 -56 -133z" />
<glyph unicode="&#xb1;" />
<glyph unicode="&#xb2;" horiz-adv-x="299" />
<glyph unicode="&#xb3;" horiz-adv-x="299" />
<glyph unicode="&#xb4;" horiz-adv-x="458" d="M43 1495l313 254l62 -147l-342 -142z" />
<glyph unicode="&#xb6;" horiz-adv-x="944" d="M0 1237q0 489 416 489h528v-73h-104v-2104h-101v2104h-223v-2104h-100v1178q-416 0 -416 510z" />
<glyph unicode="&#xb8;" horiz-adv-x="409" d="M68 -414l28 49q104 -23 150 9q43 29 53 77q10 47 -37 86q-45 39 -121 19l125 192h84l-61 -104q106 -8 135 -90t-21 -146q-49 -66 -137 -86q-96 -22 -198 -6z" />
<glyph unicode="&#xb9;" horiz-adv-x="299" />
<glyph unicode="&#xba;" horiz-adv-x="401" />
<glyph unicode="&#xbb;" horiz-adv-x="538" />
<glyph unicode="&#xbc;" horiz-adv-x="784" />
<glyph unicode="&#xbd;" horiz-adv-x="784" />
<glyph unicode="&#xbe;" horiz-adv-x="784" />
<glyph unicode="&#xbf;" horiz-adv-x="565" />
<glyph unicode="&#xc0;" horiz-adv-x="1961" d="M14 -2q381 535 619 1014q233 471 301 751l59 11q362 -977 867 -1727l110 27l17 -45q-229 -31 -359 -72q-178 471 -405 920q-393 86 -559 16q-391 -705 -385 -840l92 -14v-41h-357zM725 993l436 -10q-131 381 -243 520zM797 2032l342 -142l32 35l-313 254z" />
<glyph unicode="&#xc1;" horiz-adv-x="1961" d="M14 -2q381 535 619 1014q233 471 301 751l59 11q362 -977 867 -1727l110 27l17 -45q-229 -31 -359 -72q-178 471 -405 920q-393 86 -559 16q-391 -705 -385 -840l92 -14v-41h-357zM725 993l436 -10q-131 381 -243 520zM799 1925l311 254l64 -147l-343 -142z" />
<glyph unicode="&#xc2;" horiz-adv-x="1961" d="M14 -2q381 535 619 1014q233 471 301 751l59 11q362 -977 867 -1727l110 27l17 -45q-229 -31 -359 -72q-178 471 -405 920q-393 86 -559 16q-391 -705 -385 -840l92 -14v-41h-357zM682 1915l233 262h60l229 -262l-53 -39l-207 164l-213 -164zM725 993l436 -10 q-131 381 -243 520z" />
<glyph unicode="&#xc3;" horiz-adv-x="1961" d="M14 -2q381 535 619 1014q233 471 301 751l59 11q362 -977 867 -1727l110 27l17 -45q-229 -31 -359 -72q-178 471 -405 920q-393 86 -559 16q-391 -705 -385 -840l92 -14v-41h-357zM715 1937q0 311 233 174q236 -139 236 41h51q0 -313 -235.5 -175.5t-235.5 -39.5h-49z M725 993l436 -10q-131 381 -243 520z" />
<glyph unicode="&#xc4;" horiz-adv-x="1961" d="M14 -2q381 535 619 1014q233 471 301 751l59 11q362 -977 867 -1727l110 27l17 -45q-229 -31 -359 -72q-178 471 -405 920q-393 86 -559 16q-391 -705 -385 -840l92 -14v-41h-357zM659 2064q14 61 89 76q74 15 110 -6q37 -20 27 -78q-8 -51 -74 -73.5t-115 -0.5 q-51 23 -37 82zM725 993l436 -10q-131 381 -243 520zM1065 2064q14 61 88 76t111 -6q37 -20 26 -78q-8 -51 -73.5 -73.5t-116.5 -0.5q-49 23 -35 82z" />
<glyph unicode="&#xc5;" horiz-adv-x="1961" d="M14 -2q381 535 619 1014q233 471 301 751l59 11q362 -977 867 -1727l110 27l17 -45q-229 -31 -359 -72q-178 471 -405 920q-393 86 -559 16q-391 -705 -385 -840l92 -14v-41h-357zM725 993l436 -10q-131 381 -243 520zM766 1917q0 82 57.5 139.5t139 57.5t139 -57.5 t57.5 -139.5t-57.5 -139.5t-139 -57.5t-139 57.5t-57.5 139.5zM848 1919q0 -51 32.5 -84t82 -33t82 33t32.5 84q0 47 -33 80q-35 35 -82 35t-81 -35q-33 -33 -33 -80z" />
<glyph unicode="&#xc6;" horiz-adv-x="2207" d="M-4 -6q725 827 1139 1677l-185 -8l35 72q557 -31 965 16l-56 -137q-367 66 -512 47v-619q471 0 643 64l-77 -174q-446 57 -566 18l-18 -887q526 6 657 156l43 -16l-264 -332l-92 8l111 107q-326 33 -680 -15l-9 33q78 39 95 412q14 371 6 532l-412 -2 q-397 -598 -506 -891l90 -32l-4 -29h-403zM887 1036l356 4q6 403 -51 570z" />
<glyph unicode="&#xc7;" horiz-adv-x="1773" d="M127 657.5q-53 311.5 84 573.5q135 262 356 381q215 115 486 143q264 27 653 -72l-207 -204l-76 14l123 74q-272 106 -542 98q-272 -10 -465 -170q-193 -162 -236 -448.5t72 -534.5q115 -250 348 -369q236 -121 500 -65q262 53 415 211l29 -88q-115 -33 -340 -320l-78 31 l160 137q-250 -94 -516 -78q-262 14 -487.5 194.5t-278.5 492zM782 -414l29 49q104 -23 150 9q43 29 53 77q10 47 -35 86q-47 39 -123 19l125 192h86l-63 -104q106 -8 134.5 -90t-20.5 -146q-49 -66 -137 -86q-97 -22 -199 -6z" />
<glyph unicode="&#xc8;" horiz-adv-x="1239" d="M39 1673l24 62q504 -31 914 16l-55 -137q-367 66 -510 47v-619q469 0 641 64l-78 -174q-449 88 -563 18l-21 -887q528 6 660 156l43 -16l-267 -332l-92 8l113 107q-326 33 -682 -15l-6 33q80 39 94 598q16 573 -41 1088zM352 2032l342 -142l33 35l-311 254z" />
<glyph unicode="&#xc9;" horiz-adv-x="1239" d="M39 1673l24 62q504 -31 914 16l-55 -137q-367 66 -510 47v-619q469 0 641 64l-78 -174q-449 88 -563 18l-21 -887q528 6 660 156l43 -16l-267 -332l-92 8l113 107q-326 33 -682 -15l-6 33q80 39 94 598q16 573 -41 1088zM334 1925l311 254l64 -147l-342 -142z" />
<glyph unicode="&#xca;" horiz-adv-x="1239" d="M39 1673l24 62q504 -31 914 16l-55 -137q-367 66 -510 47v-619q469 0 641 64l-78 -174q-449 88 -563 18l-21 -887q528 6 660 156l43 -16l-267 -332l-92 8l113 107q-326 33 -682 -15l-6 33q80 39 94 598q16 573 -41 1088zM317 1915l234 262h57l230 -262l-54 -39l-206 164 l-211 -164z" />
<glyph unicode="&#xcb;" horiz-adv-x="1239" d="M39 1673l24 62q504 -31 914 16l-55 -137q-367 66 -510 47v-619q469 0 641 64l-78 -174q-449 88 -563 18l-21 -887q528 6 660 156l43 -16l-267 -332l-92 8l113 107q-326 33 -682 -15l-6 33q80 39 94 598q16 573 -41 1088zM238 2064q14 61 88 76t110 -6q37 -20 27 -78 q-8 -51 -73.5 -73.5t-115.5 -0.5q-50 23 -36 82zM643 2064q14 61 88 76t111 -6q37 -20 26 -78q-8 -51 -75 -74q-66 -23 -115 0t-35 82z" />
<glyph unicode="&#xcc;" horiz-adv-x="679" d="M115 2036l342 -144l32 37l-313 254zM166 -14q86 59 90 821q3 759 -55 860l215 92q-61 -1219 18 -1722l-250 -86z" />
<glyph unicode="&#xcd;" horiz-adv-x="679" d="M166 -14q86 59 90 821q3 759 -55 860l215 92q-61 -1219 18 -1722l-250 -86zM174 1929l313 254l62 -147l-342 -144z" />
<glyph unicode="&#xce;" horiz-adv-x="679" d="M66 1915l233 262h57l230 -262l-54 -39l-206 164l-211 -164zM166 -14q86 59 90 821q3 759 -55 860l215 92q-61 -1219 18 -1722l-250 -86z" />
<glyph unicode="&#xcf;" horiz-adv-x="679" d="M8 2064q14 61 88 76t111 -6q39 -23 29 -78q-8 -51 -76 -74q-66 -23 -115 0q-51 23 -37 82zM166 -14q86 59 90 821q3 759 -55 860l215 92q-61 -1219 18 -1722l-250 -86zM414 2064q14 61 88 76t110 -6q37 -20 27 -78q-8 -51 -73.5 -73.5t-116.5 -0.5q-49 23 -35 82z" />
<glyph unicode="&#xd0;" horiz-adv-x="661" />
<glyph unicode="&#xd1;" horiz-adv-x="1943" d="M203 1708l55 41l1292 -1348v633q0 539 -92 656l230 71q-88 -1483 0 -1749l-84 -24q-178 354 -1244 1392v-626q0 -598 66 -711l172 20v-57l-379 -14q101 1505 -16 1716zM705 1937q0 313 235.5 174t235.5 41h51q0 -313 -235.5 -175.5t-235.5 -39.5h-51z" />
<glyph unicode="&#xd2;" horiz-adv-x="2043" d="M139 1122q86 319 367 506q279 184 653.5 137t579.5 -294.5t190 -579.5q-16 -334 -184 -561q-166 -223 -492 -314q-322 -88 -635 41q-309 129 -438 437q-127 302 -41 628zM326 1116q-63 -315 57 -579q119 -260 342 -381q219 -119 487.5 -64t395.5 281q125 223 116 530 q-10 309 -192 529q-184 221 -456.5 260t-479.5 -109q-205 -148 -270 -467zM813 2036l342 -144l33 37l-314 254z" />
<glyph unicode="&#xd3;" horiz-adv-x="2043" d="M139 1122q86 319 367 506q279 184 653.5 137t579.5 -294.5t190 -579.5q-16 -334 -184 -561q-166 -223 -492 -314q-322 -88 -635 41q-309 129 -438 437q-127 302 -41 628zM326 1116q-63 -315 57 -579q119 -260 342 -381q219 -119 487.5 -64t395.5 281q125 223 116 530 q-10 309 -192 529q-184 221 -456.5 260t-479.5 -109q-205 -148 -270 -467zM813 1929l313 254l64 -147l-342 -144z" />
<glyph unicode="&#xd4;" horiz-adv-x="2043" d="M139 1122q86 319 367 506q279 184 653.5 137t579.5 -294.5t190 -579.5q-16 -334 -184 -561q-166 -223 -492 -314q-322 -88 -635 41q-309 129 -438 437q-127 302 -41 628zM326 1116q-63 -315 57 -579q119 -260 342 -381q219 -119 487.5 -64t395.5 281q125 223 116 530 q-10 309 -192 529q-184 221 -456.5 260t-479.5 -109q-205 -148 -270 -467zM758 1915l231 262h60l229 -262l-53 -39l-207 164l-211 -164z" />
<glyph unicode="&#xd5;" horiz-adv-x="2043" d="M139 1122q86 319 367 506q279 184 653.5 137t579.5 -294.5t190 -579.5q-16 -334 -184 -561q-166 -223 -492 -314q-322 -88 -635 41q-309 129 -438 437q-127 302 -41 628zM326 1116q-63 -315 57 -579q119 -260 342 -381q219 -119 487.5 -64t395.5 281q125 223 116 530 q-10 309 -192 529q-184 221 -456.5 260t-479.5 -109q-205 -148 -270 -467zM772 1937q0 313 235.5 174t235.5 41h51q0 -313 -235.5 -175.5t-235.5 -39.5h-51z" />
<glyph unicode="&#xd6;" horiz-adv-x="2043" d="M139 1122q86 319 367 506q279 184 653.5 137t579.5 -294.5t190 -579.5q-16 -334 -184 -561q-166 -223 -492 -314q-322 -88 -635 41q-309 129 -438 437q-127 302 -41 628zM326 1116q-63 -315 57 -579q119 -260 342 -381q219 -119 487.5 -64t395.5 281q125 223 116 530 q-10 309 -192 529q-184 221 -456.5 260t-479.5 -109q-205 -148 -270 -467zM692 2064q14 61 88 76t111 -6q37 -20 27 -78q-8 -51 -74 -73.5t-115 -0.5q-51 23 -37 82zM1098 2064q14 61 88 76t110 -6q37 -20 27 -78q-8 -51 -73.5 -73.5t-116.5 -0.5q-49 23 -35 82z" />
<glyph unicode="&#xd7;" />
<glyph unicode="&#xd8;" horiz-adv-x="694" />
<glyph unicode="&#xd9;" horiz-adv-x="1974" d="M119 1702l336 78q-20 -377 -29 -819q-10 -471 117 -680t411 -207q287 4 420 157q135 158 142 598q6 430 -29 883l217 51q-37 -336 -47 -927q-8 -569 22 -762l121 61l33 -43l-334 -131l-4 260q-242 -229 -612 -239q-367 -8 -502 227q-135 238 -115 563q20 317 -4 914 l-133 -50zM778 2036l342 -144l33 37l-313 254z" />
<glyph unicode="&#xda;" horiz-adv-x="1974" d="M119 1702l336 78q-20 -377 -29 -819q-10 -471 117 -680t411 -207q287 4 420 157q135 158 142 598q6 430 -29 883l217 51q-37 -336 -47 -927q-8 -569 22 -762l121 61l33 -43l-334 -131l-4 260q-242 -229 -612 -239q-367 -8 -502 227q-135 238 -115 563q20 317 -4 914 l-133 -50zM778 1929l314 254l61 -147l-342 -144z" />
<glyph unicode="&#xdb;" horiz-adv-x="1974" d="M119 1702l336 78q-20 -377 -29 -819q-10 -471 117 -680t411 -207q287 4 420 157q135 158 142 598q6 430 -29 883l217 51q-37 -336 -47 -927q-8 -569 22 -762l121 61l33 -43l-334 -131l-4 260q-242 -229 -612 -239q-367 -8 -502 227q-135 238 -115 563q20 317 -4 914 l-133 -50zM729 1915l234 262h57l229 -262l-53 -39l-207 164l-211 -164z" />
<glyph unicode="&#xdc;" horiz-adv-x="1974" d="M119 1702l336 78q-20 -377 -29 -819q-10 -471 117 -680t411 -207q287 4 420 157q135 158 142 598q6 430 -29 883l217 51q-37 -336 -47 -927q-8 -569 22 -762l121 61l33 -43l-334 -131l-4 260q-242 -229 -612 -239q-367 -8 -502 227q-135 238 -115 563q20 317 -4 914 l-133 -50zM664 2064q14 61 88 76t110 -6q37 -20 27 -78q-8 -51 -76 -74q-66 -23 -114.5 0t-34.5 82zM1067 2064q14 61 88 76t111 -6q39 -23 28 -78q-8 -51 -75 -74q-66 -23 -115 0q-51 23 -37 82z" />
<glyph unicode="&#xdd;" horiz-adv-x="524" />
<glyph unicode="&#xde;" horiz-adv-x="575" />
<glyph unicode="&#xdf;" horiz-adv-x="1265" d="M109 -403q76 229 69 983q-6 780 10 1003q18 250 348 237.5t395.5 -164t-9.5 -284.5q-72 -129 -215 -182q195 -10 323 -195q127 -180 86 -538q-39 -350 -270.5 -428t-433.5 20l67 88q113 -82 236 -82q125 0 188 242q66 244 12 475q-53 233 -161.5 311t-311.5 45l-2 66 q244 -6 305 109q59 109 27 280q-31 168 -203 188.5t-204 -161.5q-33 -178 -33 -1878l-203 -158z" />
<glyph unicode="&#xe0;" horiz-adv-x="1046" d="M125 233q-43 233 72 398q113 162 475 -10q49 301 -15 426q-66 127 -483 -84l-37 45q219 72 330 258l78 -29l-137 -113q319 92 366 64q49 -31 62 -201q10 -154 -9 -438q-18 -264 4 -473l158 61v-57q-238 -68 -309 -131l-25 211q-238 -178 -362.5 -170.5t-167.5 243.5z M291 260q20 -90 55 -133t84 -39q98 6 227 145l5 308q-256 166 -336 34q-78 -131 -35 -315zM332 1602l342 -142l33 35l-314 254z" />
<glyph unicode="&#xe1;" horiz-adv-x="1046" d="M125 233q-43 233 72 398q113 162 475 -10q49 301 -15 426q-66 127 -483 -84l-37 45q219 72 330 258l78 -29l-137 -113q319 92 366 64q49 -31 62 -201q10 -154 -9 -438q-18 -264 4 -473l158 61v-57q-238 -68 -309 -131l-25 211q-238 -178 -362.5 -170.5t-167.5 243.5z M291 260q20 -90 55 -133t84 -39q98 6 227 145l5 308q-256 166 -336 34q-78 -131 -35 -315zM334 1495l311 254l64 -147l-342 -142z" />
<glyph unicode="&#xe2;" horiz-adv-x="1046" d="M125 233q-43 233 72 398q113 162 475 -10q49 301 -15 426q-66 127 -483 -84l-37 45q219 72 330 258l78 -29l-137 -113q319 92 366 64q49 -31 62 -201q10 -154 -9 -438q-18 -264 4 -473l158 61v-57q-238 -68 -309 -131l-25 211q-238 -178 -362.5 -170.5t-167.5 243.5z M260 1470l234 263h57l229 -263l-53 -38l-207 163l-211 -163zM291 260q20 -90 55 -133t84 -39q98 6 227 145l5 308q-256 166 -336 34q-78 -131 -35 -315z" />
<glyph unicode="&#xe3;" horiz-adv-x="1046" d="M125 233q-43 233 72 398q113 162 475 -10q49 301 -15 426q-66 127 -483 -84l-37 45q219 72 330 258l78 -29l-137 -113q319 92 366 64q49 -31 62 -201q10 -154 -9 -438q-18 -264 4 -473l158 61v-57q-238 -68 -309 -131l-25 211q-238 -178 -362.5 -170.5t-167.5 243.5z M260 1507q0 315 236 176q233 -139 233 41h51q0 -313 -235.5 -175.5t-235.5 -41.5h-49zM291 260q20 -90 55 -133t84 -39q98 6 227 145l5 308q-256 166 -336 34q-78 -131 -35 -315z" />
<glyph unicode="&#xe4;" horiz-adv-x="1046" d="M125 233q-43 233 72 398q113 162 475 -10q49 301 -15 426q-66 127 -483 -84l-37 45q219 72 330 258l78 -29l-137 -113q319 92 366 64q49 -31 62 -201q10 -154 -9 -438q-18 -264 4 -473l158 61v-57q-238 -68 -309 -131l-25 211q-238 -178 -362.5 -170.5t-167.5 243.5z M199 1632q14 61 88 76t110 -6q37 -20 27 -78q-8 -53 -76 -76q-66 -23 -115 0q-50 23 -34 84zM291 260q20 -90 55 -133t84 -39q98 6 227 145l5 308q-256 166 -336 34q-78 -131 -35 -315zM602 1632.5q14 61.5 88 75.5q74 15 111 -6q39 -23 28 -78q-8 -53 -75 -76 q-66 -23 -115 0q-51 23 -37 84.5z" />
<glyph unicode="&#xe5;" horiz-adv-x="1046" d="M125 233q-43 233 72 398q113 162 475 -10q49 301 -15 426q-66 127 -483 -84l-37 45q219 72 330 258l78 -29l-137 -113q319 92 366 64q49 -31 62 -201q10 -154 -9 -438q-18 -264 4 -473l158 61v-57q-238 -68 -309 -131l-25 211q-238 -178 -362.5 -170.5t-167.5 243.5z M291 260q20 -90 55 -133t84 -39q98 6 227 145l5 308q-256 166 -336 34q-78 -131 -35 -315zM324 1583q0 84 57 141.5t139 57.5t139.5 -57.5t57.5 -141.5q0 -80 -57.5 -137t-139.5 -57t-139 57t-57 137zM406 1585q0 -49 32 -82q35 -35 82 -35t82 35q33 33 33 82t-33 82t-82 33 t-81.5 -33t-32.5 -82z" />
<glyph unicode="&#xe6;" horiz-adv-x="1574" d="M127 233.5q-39 235.5 73.5 397.5t487.5 -10q20 350 -57 444q-76 90 -455 -100l-41 49q225 68 330 256l80 -35l-135 -109q213 78 292.5 47.5t106.5 -124.5q127 170 377 176q127 4 190.5 -103.5t63.5 -324.5l-590 -84q-12 -360 86 -508q96 -145 231 -135q131 8 273 202 l53 -96q-219 -188 -432 -182q-211 6 -303 168q-106 -78 -223 -129q-125 -53 -244 -45q-125 10 -164 245.5zM291 260q43 -178 166 -178q121 0 176 102q55 101 49 357q-274 166 -354 34q-80 -133 -37 -315zM862 770l408 53q14 162 -72 276.5t-196.5 4t-139.5 -333.5z" />
<glyph unicode="&#xe7;" horiz-adv-x="942" d="M92 586q6 266 133 448q125 180 355 191q227 8 260 -219l-148 -84q-12 147 -106 213q-92 66 -197 -72q-106 -141 -119 -422q-12 -283 90.5 -422t223.5 -127q123 12 276 178l49 -84q-209 -195 -422 -190q-211 2 -307 164q-94 158 -88 426zM295 -414l29 49q102 -20 147 9 q43 29 53 77q10 47 -35 86t-120 19l123 192h86l-64 -104q106 -8 135 -90t-20 -146q-49 -66 -137 -86q-97 -22 -197 -6z" />
<glyph unicode="&#xe8;" horiz-adv-x="997" d="M94 586q6 266 133 448q127 184 379 193q127 4 191.5 -105.5t66.5 -333.5l-590 -73q-16 -358 86 -506q102 -150 235.5 -137.5t264.5 198.5l49 -84q-209 -193 -419.5 -190.5t-307.5 164.5q-94 158 -88 426zM289 770l407 53q16 164 -69 277q-88 115 -198.5 4t-139.5 -334z M309 1602l342 -142l33 35l-313 254z" />
<glyph unicode="&#xe9;" horiz-adv-x="997" d="M94 586q6 266 133 448q127 184 379 193q127 4 191.5 -105.5t66.5 -333.5l-590 -73q-16 -358 86 -506q102 -150 235.5 -137.5t264.5 198.5l49 -84q-209 -193 -419.5 -190.5t-307.5 164.5q-94 158 -88 426zM289 770l407 53q16 164 -69 277q-88 115 -198.5 4t-139.5 -334z M309 1495l314 254l61 -147l-342 -142z" />
<glyph unicode="&#xea;" horiz-adv-x="997" d="M94 586q6 266 133 448q127 184 379 193q127 4 191.5 -105.5t66.5 -333.5l-590 -73q-16 -358 86 -506q102 -150 235.5 -137.5t264.5 198.5l49 -84q-209 -193 -419.5 -190.5t-307.5 164.5q-94 158 -88 426zM250 1470l233 263h58l229 -263l-53 -38l-205 163l-213 -163z M289 770l407 53q16 164 -69 277q-88 115 -198.5 4t-139.5 -334z" />
<glyph unicode="&#xeb;" horiz-adv-x="997" d="M94 586q6 266 133 448q127 184 379 193q127 4 191.5 -105.5t66.5 -333.5l-590 -73q-16 -358 86 -506q102 -150 235.5 -137.5t264.5 198.5l49 -84q-209 -193 -419.5 -190.5t-307.5 164.5q-94 158 -88 426zM213 1632q14 61 86 76q74 15 111 -6q39 -23 28 -78 q-8 -53 -76 -76q-66 -23 -114 0q-51 23 -35 84zM289 770l407 53q16 164 -69 277q-88 115 -198.5 4t-139.5 -334zM616.5 1632.5q14.5 61.5 88.5 75.5q74 15 110 -6q37 -20 27 -78q-8 -53 -74 -75.5t-115 -0.5q-51 23 -36.5 84.5z" />
<glyph unicode="&#xec;" d="M92 1133q193 4 301 102l31 -4q-76 -221 -39 -1159l123 65l6 -51l-305 -129q49 1038 -10 1151l-103 -35zM92 1602l342 -142l35 35l-313 254z" />
<glyph unicode="&#xed;" d="M92 1133q193 4 301 102l31 -4q-76 -221 -39 -1159l123 65l6 -51l-305 -129q49 1038 -10 1151l-103 -35zM94 1495l314 254l61 -147l-342 -142z" />
<glyph unicode="&#xee;" d="M29 1470l233 263h57l232 -263l-55 -38l-205 163l-213 -163zM92 1133q193 4 301 102l31 -4q-76 -221 -39 -1159l123 65l6 -51l-305 -129q49 1038 -10 1151l-103 -35z" />
<glyph unicode="&#xef;" d="M-4 1632q14 61 88 76q72 14 109 -6q39 -23 28 -78q-8 -53 -76 -76q-66 -23 -114 0q-51 23 -35 84zM92 1133q193 4 301 102l31 -4q-76 -221 -39 -1159l123 65l6 -51l-305 -129q49 1038 -10 1151l-103 -35zM399.5 1632.5q14.5 61.5 87.5 75.5q74 15 111 -6q37 -20 27 -78 q-8 -53 -74 -75.5t-115 -0.5q-51 23 -36.5 84.5z" />
<glyph unicode="&#xf0;" horiz-adv-x="481" />
<glyph unicode="&#xf1;" horiz-adv-x="1183" d="M102 1122q203 23 289 119l25 -16l-33 -238q240 205 403 230q168 25 187 -177q18 -200 0 -485q-18 -279 4 -489l123 69l8 -57l-301 -121q16 319 22 672q6 383 -73 444q-82 63 -211 -29t-166 -372l-25 -639l123 63l8 -51l-307 -88q98 1038 39 1151l-100 -35zM322 1507 q0 315 233 176q236 -139 236 41h51q0 -313 -235.5 -175.5t-235.5 -41.5h-49z" />
<glyph unicode="&#xf2;" horiz-adv-x="1177" d="M113 414q-31 227 37 428q66 197 184 278q125 86 280 92q162 6 285 -98t154 -328q33 -233 -31 -430q-66 -203 -193 -288q-125 -82 -286 -86q-154 -2 -279 100q-120 101 -151 332zM287 717q-33 -233 35 -422q68 -186 210 -217q141 -31 226 61q82 92 116 322q33 223 -36 442 q-68 211 -205 231.5t-225 -79.5q-86 -98 -121 -338zM375 1602l342 -142l33 35l-314 254z" />
<glyph unicode="&#xf3;" horiz-adv-x="1177" d="M113 414q-31 227 37 428q66 197 184 278q125 86 280 92q162 6 285 -98t154 -328q33 -233 -31 -430q-66 -203 -193 -288q-125 -82 -286 -86q-154 -2 -279 100q-120 101 -151 332zM287 717q-33 -233 35 -422q68 -186 210 -217q141 -31 226 61q82 92 116 322q33 223 -36 442 q-68 211 -205 231.5t-225 -79.5q-86 -98 -121 -338zM399 1495l314 254l61 -147l-342 -142z" />
<glyph unicode="&#xf4;" horiz-adv-x="1177" d="M113 414q-31 227 37 428q66 197 184 278q125 86 280 92q162 6 285 -98t154 -328q33 -233 -31 -430q-66 -203 -193 -288q-125 -82 -286 -86q-154 -2 -279 100q-120 101 -151 332zM287 717q-33 -233 35 -422q68 -186 210 -217q141 -31 226 61q82 92 116 322q33 223 -36 442 q-68 211 -205 231.5t-225 -79.5q-86 -98 -121 -338zM313 1470l234 263h57l232 -263l-56 -38l-205 163l-213 -163z" />
<glyph unicode="&#xf5;" horiz-adv-x="1177" d="M113 414q-31 227 37 428q66 197 184 278q125 86 280 92q162 6 285 -98t154 -328q33 -233 -31 -430q-66 -203 -193 -288q-125 -82 -286 -86q-154 -2 -279 100q-120 101 -151 332zM287 717q-33 -233 35 -422q68 -186 210 -217q141 -31 226 61q82 92 116 322q33 223 -36 442 q-68 211 -205 231.5t-225 -79.5q-86 -98 -121 -338zM305 1507q0 315 235.5 176t235.5 41h51q0 -313 -235.5 -175.5t-235.5 -41.5h-51z" />
<glyph unicode="&#xf6;" horiz-adv-x="1177" d="M113 414q-31 227 37 428q66 197 184 278q125 86 280 92q162 6 285 -98t154 -328q33 -233 -31 -430q-66 -203 -193 -288q-125 -82 -286 -86q-154 -2 -279 100q-120 101 -151 332zM280.5 1632.5q14.5 61.5 88.5 75.5q74 15 110 -6q37 -20 27 -78q-8 -53 -73.5 -75.5 t-115.5 -0.5q-51 23 -36.5 84.5zM287 717q-33 -233 35 -422q68 -186 210 -217q141 -31 226 61q82 92 116 322q33 223 -36 442q-68 211 -205 231.5t-225 -79.5q-86 -98 -121 -338zM686 1632q14 61 88 76t111 -6q37 -20 26 -78q-8 -53 -75 -76q-66 -23 -115 0q-51 23 -35 84z " />
<glyph unicode="&#xf7;" horiz-adv-x="1153" d="M104 723v98h947v-98h-947zM457 471q14 61 88 76t110 -6q37 -20 27 -78q-8 -53 -76 -76q-66 -23 -114 0q-51 23 -35 84zM457 1071q16 63 87.5 77.5t110.5 -7.5q35 -20 27 -76q-8 -53 -76 -76q-66 -23 -114.5 0t-34.5 82z" />
<glyph unicode="&#xf8;" horiz-adv-x="364" />
<glyph unicode="&#xf9;" horiz-adv-x="1220" d="M109 1139q231 20 319 96q-104 -520 -78 -825q27 -309 133 -322q111 -12 215.5 92.5t122.5 425.5l10 520l-139 -45l-8 68q229 -2 309 94q-51 -614 -18 -1171l143 88l10 -74l-305 -125l-12 248q-200 -187 -362 -215q-160 -27 -222 123q-59 145 -41 487q18 336 56 512 l-121 -49zM395 1602l342 -142l33 35l-311 254z" />
<glyph unicode="&#xfa;" horiz-adv-x="1220" d="M109 1139q231 20 319 96q-104 -520 -78 -825q27 -309 133 -322q111 -12 215.5 92.5t122.5 425.5l10 520l-139 -45l-8 68q229 -2 309 94q-51 -614 -18 -1171l143 88l10 -74l-305 -125l-12 248q-200 -187 -362 -215q-160 -27 -222 123q-59 145 -41 487q18 336 56 512 l-121 -49zM397 1495l314 254l61 -147l-342 -142z" />
<glyph unicode="&#xfb;" horiz-adv-x="1220" d="M109 1139q231 20 319 96q-104 -520 -78 -825q27 -309 133 -322q111 -12 215.5 92.5t122.5 425.5l10 520l-139 -45l-8 68q229 -2 309 94q-51 -614 -18 -1171l143 88l10 -74l-305 -125l-12 248q-200 -187 -362 -215q-160 -27 -222 123q-59 145 -41 487q18 336 56 512 l-121 -49zM317 1470l234 263h57l232 -263l-56 -38l-204 163l-213 -163z" />
<glyph unicode="&#xfc;" horiz-adv-x="1220" d="M109 1139q231 20 319 96q-104 -520 -78 -825q27 -309 133 -322q111 -12 215.5 92.5t122.5 425.5l10 520l-139 -45l-8 68q229 -2 309 94q-51 -614 -18 -1171l143 88l10 -74l-305 -125l-12 248q-200 -187 -362 -215q-160 -27 -222 123q-59 145 -41 487q18 336 56 512 l-121 -49zM280.5 1632.5q14.5 61.5 88.5 75.5q74 15 110 -6q37 -20 27 -78q-8 -53 -73.5 -75.5t-115.5 -0.5q-51 23 -36.5 84.5zM686 1632q14 61 88 76t111 -6q37 -20 26 -78q-8 -53 -75 -76q-66 -23 -115 0q-51 23 -35 84z" />
<glyph unicode="&#xfd;" horiz-adv-x="391" />
<glyph unicode="&#xfe;" horiz-adv-x="346" />
<glyph unicode="&#xff;" horiz-adv-x="391" />
<glyph unicode="&#x152;" horiz-adv-x="2727" d="M166 1112q86 323 369 504q281 180 653 133q369 -45 557 -270l-21 204l-182 -14l37 70q528 -35 915 10l-61 -137q-373 70 -516 49v-623q477 0 649 60l-82 -166q-455 84 -567 16l-21 -880q528 0 670 155l37 -22l-266 -336l-99 20l127 97q-334 37 -684 -11l-10 37 q82 33 82 305q-156 -227 -473 -311q-326 -86 -637 41q-311 129 -438 438q-125 305 -39 631zM350 1106q-63 -315 58 -580q121 -262 340 -380.5t489 -63.5q268 55 395 280q125 223 117 531q-8 305 -194.5 528.5t-454.5 261.5q-272 39 -482 -110q-202 -145 -268 -467z" />
<glyph unicode="&#x153;" horiz-adv-x="1789" d="M106 414q-29 238 35 428q63 197 187 278q125 84 284 90q164 6 254 -71q94 -82 119 -154q160 233 412 242q127 4 190.5 -105.5t65.5 -330.5l-592 -74q-12 -358 90 -510t235 -139q135 12 265 202l49 -84q-207 -197 -424 -192q-215 4 -334 209q-154 -217 -358 -219 q-203 -2 -326 98q-125 103 -152 332zM287 717q-29 -238 39 -422q68 -186 206 -217q137 -31 220 61q86 94 112.5 321.5t-41.5 442.5q-68 209 -200 232q-132 22 -222 -80q-85 -98 -114 -338zM1077 770l410 53q14 162 -72 276.5t-196 4.5q-115 -115 -142 -334z" />
<glyph unicode="&#x178;" horiz-adv-x="524" />
<glyph unicode="&#x2c6;" horiz-adv-x="579" d="M31 1470l231 263h60l229 -263l-53 -38l-207 163l-211 -163z" />
<glyph unicode="&#x2dc;" horiz-adv-x="583" d="M31 1507q0 315 233 176q236 -139 236 41h51q0 -313 -235.5 -175.5t-235.5 -41.5h-49z" />
<glyph unicode="&#x2000;" horiz-adv-x="1091" />
<glyph unicode="&#x2001;" horiz-adv-x="2183" />
<glyph unicode="&#x2002;" horiz-adv-x="1091" />
<glyph unicode="&#x2003;" horiz-adv-x="2183" />
<glyph unicode="&#x2004;" horiz-adv-x="727" />
<glyph unicode="&#x2005;" horiz-adv-x="545" />
<glyph unicode="&#x2006;" horiz-adv-x="363" />
<glyph unicode="&#x2007;" horiz-adv-x="363" />
<glyph unicode="&#x2008;" horiz-adv-x="272" />
<glyph unicode="&#x2009;" horiz-adv-x="436" />
<glyph unicode="&#x200a;" horiz-adv-x="121" />
<glyph unicode="&#x2010;" horiz-adv-x="786" d="M119 530v154h555v-154h-555z" />
<glyph unicode="&#x2011;" horiz-adv-x="786" d="M119 530v154h555v-154h-555z" />
<glyph unicode="&#x2012;" horiz-adv-x="786" d="M119 530v154h555v-154h-555z" />
<glyph unicode="&#x2013;" horiz-adv-x="681" />
<glyph unicode="&#x2014;" horiz-adv-x="892" />
<glyph unicode="&#x2018;" horiz-adv-x="501" d="M178 1493q-104 264 160 492l24 -37q-152 -119 -47 -363l72 39l23 -49z" />
<glyph unicode="&#x2019;" horiz-adv-x="495" d="M125 1575l229 -82q106 264 -157 492l-27 -37q152 -119 47 -363l-72 39z" />
<glyph unicode="&#x201a;" horiz-adv-x="552" d="M115 115l229 82q104 -264 -160 -492l-24 39q152 117 47 360l-72 -38z" />
<glyph unicode="&#x201c;" horiz-adv-x="862" d="M174 1493q-104 264 160 492l24 -37q-152 -119 -47 -363l74 39l21 -49zM528 1493q-104 264 160 492l25 -37q-152 -119 -47 -363l71 39l23 -49z" />
<glyph unicode="&#x201d;" horiz-adv-x="866" d="M125 1575l229 -82q106 264 -157 492l-27 -37q152 -119 47 -363l-72 39zM479 1575l230 -82q106 264 -158 492l-27 -37q152 -119 47 -363l-71 39z" />
<glyph unicode="&#x201e;" horiz-adv-x="884" d="M115 115l229 82q104 -264 -160 -492l-24 39q152 117 47 360l-72 -38zM469 115l229 82q104 -264 -159 -492l-25 39q152 117 47 360l-72 -38z" />
<glyph unicode="&#x2022;" horiz-adv-x="385" />
<glyph unicode="&#x2026;" horiz-adv-x="790" />
<glyph unicode="&#x202f;" horiz-adv-x="436" />
<glyph unicode="&#x2039;" horiz-adv-x="319" />
<glyph unicode="&#x203a;" horiz-adv-x="319" />
<glyph unicode="&#x205f;" horiz-adv-x="545" />
<glyph unicode="&#x2122;" horiz-adv-x="1316" d="M63 1663l27 72q207 -18 447 -2l-19 -72q-109 29 -174 18q-15 -362 0 -534l-127 -29l-4 29q39 14 45 221q6 182 -2 313q-74 9 -193 -16zM465 1126q121 504 108 607l29 4l240 -443q217 365 194 437l41 8q61 -430 121 -576l64 8l6 -38q-100 -4 -172 -21l-78 397l-182 -383 l-31 2q0 59 -193 398q-78 -317 -45 -371l54 8l-7 -37h-149z" />
<glyph unicode="&#xe000;" horiz-adv-x="1225" d="M0 0v1225h1225v-1225h-1225z" />
<glyph unicode="&#xfb01;" horiz-adv-x="1376" d="M43 1130l43 66l176 -2q0 236 6 383t138 209q88 41 207 41q60 0 128 -10l-51 -60q-45 18 -84 19q-57 0 -104 -37q-84 -66 -90 -541l272 -2l-41 -59l-235 14q-14 -744 -14 -1089q0 -227 5 -322l-184 -154l-27 21q68 170 68 1145q0 182 -2 393zM833 1133q193 4 301 102 l31 -4q-51 -148 -51 -628q0 -230 12 -531l123 65l6 -51l-305 -129q22 467 22 748q0 341 -32 403l-103 -35zM934 1608q1 11 4 24q14 61 88 76q31 6 55 6q34 0 55 -12q29 -17 29 -56q0 -10 -2 -22q-8 -53 -74 -76q-32 -11 -61 -10.5t-54 10.5q-40 18 -40 60z" />
<glyph unicode="&#xfb02;" horiz-adv-x="1374" d="M43 1130l43 66l176 -2q0 236 6 383t138 209q88 41 207 41q60 0 128 -10l-51 -60q-45 18 -84 19q-57 0 -104 -37q-84 -66 -90 -541l272 -2l-41 -59l-235 14q-14 -744 -14 -1089q0 -227 5 -322l-184 -154l-27 21q68 170 68 1145q0 182 -2 393zM802 1706l13 51q242 0 354 76 q-51 -610 -51 -1153q0 -324 18 -623l160 60l18 -56q-199 -37 -362 -124q36 884 36 1587q0 109 -1 213z" />
<glyph unicode="&#xfb03;" horiz-adv-x="2117" d="M43 1130l43 66l176 -2q0 236 6 383t138 209q88 41 207 41q60 0 128 -10l-51 -60q-45 18 -84 19q-57 0 -104 -37q-84 -66 -90 -541l272 -2l-41 -59l-235 14q-14 -744 -14 -1089q0 -227 5 -322l-184 -154l-27 21q68 170 68 1145q0 182 -2 393zM784 1130l43 66l176 -2 q0 236 6 383t138 209q88 41 207 41q60 0 128 -10l-51 -60q-45 18 -84 19q-57 0 -104 -37q-84 -66 -90 -541l272 -2l-41 -59l-235 14q-14 -744 -14 -1089q0 -227 5 -322l-184 -154l-27 21q68 170 68 1145q0 182 -2 393zM1577 1133q193 4 301 102l31 -4q-51 -148 -51 -628 q0 -230 12 -531l123 65l6 -51l-305 -129q22 467 22 748q0 341 -32 403l-103 -35zM1678 1608q1 11 4 24q14 61 88 76q31 6 55 6q34 0 55 -12q29 -17 29 -56q0 -10 -2 -22q-8 -53 -74 -76q-32 -11 -61 -10.5t-54 10.5q-40 18 -40 60z" />
<glyph unicode="&#xfb04;" horiz-adv-x="2115" d="M43 1130l43 66l176 -2q0 236 6 383t138 209q88 41 207 41q60 0 128 -10l-51 -60q-45 18 -84 19q-57 0 -104 -37q-84 -66 -90 -541l272 -2l-41 -59l-235 14q-14 -744 -14 -1089q0 -227 5 -322l-184 -154l-27 21q68 170 68 1145q0 182 -2 393zM784 1130l43 66l176 -2 q0 236 6 383t138 209q88 41 207 41q60 0 128 -10l-51 -60q-45 18 -84 19q-57 0 -104 -37q-84 -66 -90 -541l272 -2l-41 -59l-235 14q-14 -744 -14 -1089q0 -227 5 -322l-184 -154l-27 21q68 170 68 1145q0 182 -2 393zM1546 1706l13 51q242 0 354 76q-51 -610 -51 -1153 q0 -324 18 -623l160 60l18 -56q-199 -37 -362 -124q36 884 36 1587q0 109 -1 213z" />
</font>
</defs>
</svg>
